<svg width="95" height="95" viewBox="0 0 95 95" fill="none" xmlns="http://www.w3.org/2000/svg">
<path d="M33.3531 21.9296L35.3742 21.9676C35.4379 21.9676 35.5134 21.9453 35.5642 21.9714C36.1394 22.2731 36.7992 22.1614 37.3958 22.3514C38.0969 22.5747 38.8051 22.7789 39.4915 23.0421C41.1507 23.6767 42.6864 24.5303 44.0325 25.7049C45.3687 26.8711 46.5828 28.1346 47.5143 29.6645C47.9546 30.3875 48.3693 31.1266 48.6989 31.8937C48.9971 32.5936 49.2432 33.3145 49.4352 34.0507C49.553 34.4958 49.5829 34.9608 49.7496 35.393C49.8021 35.5284 49.8406 35.6688 49.8646 35.812C50.0674 37.0513 50.0683 38.3043 49.9971 39.5479C49.9532 40.2181 49.8536 40.8835 49.6993 41.5372C49.5701 42.1015 49.4086 42.6534 49.2608 43.2111C48.8943 44.5813 48.2557 45.8638 47.3832 46.9821C46.7438 47.8119 46.0484 48.5971 45.4091 49.4293C44.6345 50.4286 44.0003 51.5293 43.5243 52.7006C43.234 53.4188 42.9391 54.1432 42.7643 54.8856C42.6028 55.563 42.3054 56.2223 42.3244 56.9381C42.3205 57.0569 42.2891 57.1731 42.2327 57.2777C42.1159 57.539 42.1012 57.804 42.0817 58.0819C42.0494 58.5426 41.9463 59.0091 41.733 59.4119C41.448 59.9429 40.9659 60.1933 40.3351 60.1876C38.5429 60.1709 36.7493 60.2146 34.9586 60.1633C34.3705 60.1462 33.7887 60.1709 33.2039 60.1809C32.9441 60.1852 32.6814 60.198 32.4392 60.0712C32.4116 60.051 32.3788 60.0393 32.3447 60.0372C32.3106 60.0352 32.2766 60.043 32.2468 60.0598C31.9252 60.2256 31.568 60.1814 31.2208 60.1814C29.441 60.1814 27.6616 60.1747 25.8818 60.188C25.5493 60.188 25.3379 60.093 25.1489 59.808C24.7846 59.2556 24.6739 58.6486 24.5708 58.0121C24.4815 57.4492 24.4535 56.8687 24.2136 56.3277C24.0844 56.0361 24.1253 55.6955 24.0303 55.3734C23.7647 54.4709 23.4883 53.5794 23.1363 52.7092C22.4552 51.0258 21.4353 49.5651 20.2445 48.2033C19.2712 47.0899 18.3616 45.9195 17.8382 44.5092C17.5124 43.6542 17.2469 42.7774 17.0435 41.8853C16.8981 41.2237 16.8155 40.5553 16.7053 39.8937C16.5219 38.7959 16.558 37.6792 16.7053 36.5796C16.8255 35.6695 16.9903 34.7561 17.2449 33.8759C17.4786 33.0684 17.7622 32.2652 18.1426 31.5061C18.715 30.349 19.3506 29.237 20.1519 28.2153C21.3275 26.7176 22.725 25.476 24.3172 24.4486C25.0403 23.9725 25.8073 23.5666 26.6076 23.2364C27.427 22.9077 28.2554 22.5714 29.1223 22.397C30.1901 22.1828 31.2488 21.8712 32.3618 21.9605C32.6767 21.9857 32.9973 21.941 33.3151 21.9282" stroke="black" stroke-width="2" stroke-linecap="round" stroke-linejoin="round"/>
<path d="M25.3446 60.1792C25.2827 60.3459 25.1927 60.5007 25.0786 60.6371C24.8273 60.9349 24.7532 61.2755 24.7651 61.6664C24.7903 62.4801 25.3683 63.0771 26.1839 63.0771H40.5223C40.7927 63.0716 41.0583 63.1491 41.2834 63.2992C41.5085 63.4492 41.6821 63.6647 41.781 63.9165C42.0157 64.4826 41.9074 65.0807 41.5155 65.4839C41.2305 65.777 40.9075 65.9114 40.4843 65.9114C36.1371 65.8997 31.7897 65.8972 27.4422 65.9038C26.5791 65.9038 25.955 66.5285 25.955 67.391C25.955 68.2042 26.5853 68.8022 27.4422 68.8022H38.6522C39.6383 68.8022 40.3294 69.6767 40.1014 70.6329C40.0338 70.9086 39.8781 71.1548 39.6579 71.334C39.4376 71.5132 39.1649 71.6156 38.8811 71.6256C36.2758 71.7078 33.6694 71.647 31.0636 71.6551C30.5848 71.6551 30.135 71.7377 29.7336 71.9781C29.5312 72.0997 29.3911 72.0944 29.2325 71.9657C29.0672 71.8332 28.869 71.7482 28.6591 71.7197" stroke="black" stroke-width="2" stroke-linecap="round" stroke-linejoin="round"/>
<path d="M34.3829 45.4209C34.3943 46.0626 34.1796 46.6839 34.2095 47.3275C34.2152 47.4544 34.1929 47.5817 34.1929 47.7075C34.1929 51.8008 34.1929 55.8939 34.1929 59.9868" stroke="black" stroke-width="2" stroke-linecap="round" stroke-linejoin="round"/>
<path d="M35.1453 44.8103C35.1453 44.1339 35.5842 43.7087 36.0231 43.2855C36.4816 42.839 37.0296 42.4946 37.6309 42.2752C37.9772 42.1507 38.4147 42.0852 38.7643 42.3374C39.139 42.6067 39.2312 42.9972 39.111 43.438C39.0307 43.7339 38.8042 43.9097 38.5776 44.0868C38.2247 44.3652 37.81 44.5077 37.402 44.6744C36.9996 44.8407 36.5612 44.7993 36.1713 44.9936C35.9456 45.1062 35.6758 45.0767 35.4535 44.9575C35.1771 44.8093 34.96 44.8402 34.7643 45.0777C34.5339 45.3627 34.2779 45.3774 33.9207 45.2853C33.441 45.1618 32.9303 45.1827 32.4378 45.3066C32.1528 45.3784 32.0801 45.5888 32.1361 45.8391C32.2924 46.5312 32.3261 47.2318 32.3261 47.9377C32.3233 51.9543 32.3233 55.971 32.3261 59.988" stroke="black" stroke-width="2" stroke-linecap="round" stroke-linejoin="round"/>
<path d="M31.3699 44.7723C31.3072 44.0493 30.8607 43.5648 30.3387 43.1345C29.8908 42.7649 29.4006 42.4405 28.8487 42.27C28.5005 42.1626 28.0958 42.1047 27.749 42.3346C27.4284 42.5474 27.2769 42.8661 27.3329 43.2461C27.3971 43.6855 27.7177 43.9643 28.0559 44.1961C28.6036 44.5699 29.2325 44.7466 29.8827 44.8497C29.9592 44.8616 30.0494 44.853 30.1093 44.891C30.552 45.1727 30.9643 45.0421 31.3628 44.7927L32.1703 45.4216" stroke="black" stroke-width="2" stroke-linecap="round" stroke-linejoin="round"/>
<path d="M28.0521 9.26904C28.0576 9.55528 28.1022 9.83943 28.1846 10.1136C28.3323 10.6271 28.3566 11.1757 28.4345 11.7096C28.4478 11.7984 28.4293 11.8825 28.4654 11.9789C28.6919 12.5793 28.7095 13.2263 28.8582 13.8438C29.014 14.4893 29.109 15.1505 29.2311 15.7979C29.3313 16.3313 29.461 16.8771 29.5108 17.4291C29.5441 17.7986 29.7165 18.152 29.6923 18.5358" stroke="black" stroke-width="2" stroke-linecap="round" stroke-linejoin="round"/>
<path d="M40.7512 9.00195C40.8937 9.40095 40.851 9.7743 40.7374 10.1895C40.6339 10.5695 40.5683 10.9865 40.4553 11.3561C40.28 11.9261 40.147 12.5079 39.9969 13.0832C39.7461 14.0465 39.4678 15.0031 39.2307 15.9712C39.1224 16.4124 39.0555 16.8841 38.8602 17.3206C38.6873 17.7078 38.6479 18.1547 38.552 18.5651C38.2731 18.5993 38.0019 18.5257 37.7388 18.6103" stroke="black" stroke-width="2" stroke-linecap="round" stroke-linejoin="round"/>
<path d="M63.594 38.3654C62.9328 38.2946 62.2706 38.3654 61.6113 38.353C60.4789 38.3284 59.3465 38.3678 58.2174 38.3431C57.1857 38.3212 56.1573 38.3312 55.1299 38.3673C54.824 38.3777 54.5214 38.2723 54.2145 38.3464" stroke="black" stroke-width="2" stroke-linecap="round" stroke-linejoin="round"/>
<path d="M12.2645 38.3468C11.514 38.2992 10.7673 38.266 10.0135 38.3563C9.40691 38.4295 8.79178 38.2769 8.18426 38.3002C7.06421 38.3439 5.94796 38.3477 4.82791 38.3002C4.20708 38.2731 3.58246 38.3415 2.95973 38.3667" stroke="black" stroke-width="2" stroke-linecap="round" stroke-linejoin="round"/>
<path d="M60.0092 25.8574C58.5599 26.5314 57.1088 27.2002 55.6624 27.88C54.5153 28.4196 53.3738 28.9725 52.2295 29.5187" stroke="black" stroke-width="2" stroke-linecap="round" stroke-linejoin="round"/>
<path d="M7.57388 23.8927C7.83418 23.8148 7.96243 24.0565 8.14056 24.1511C9.34231 24.789 10.5113 25.4863 11.6988 26.1503C12.7913 26.7616 13.8781 27.3853 14.9734 27.989C15.1022 28.0603 15.2518 28.0935 15.3914 28.1443" stroke="black" stroke-width="2" stroke-linecap="round" stroke-linejoin="round"/>
<path d="M59.1703 52.7809C58.7703 52.8056 58.4934 52.5097 58.1885 52.3439C56.6685 51.5174 55.1827 50.6264 53.676 49.7709C52.9221 49.3434 52.1522 48.9421 51.3893 48.5288" stroke="black" stroke-width="2" stroke-linecap="round" stroke-linejoin="round"/>
<path d="M15.0485 48.5664C13.1672 49.6288 11.286 50.6898 9.40501 51.7493C8.82503 52.0757 8.23176 52.3782 7.65463 52.7093C7.48648 52.8043 7.32213 52.7625 7.15588 52.7806" stroke="black" stroke-width="2" stroke-linecap="round" stroke-linejoin="round"/>
<path d="M21.4168 21.739C21.3484 21.3253 21.0125 21.074 20.7964 20.7544C19.996 19.5797 19.1548 18.433 18.3264 17.2774C17.68 16.3749 17.0164 15.4814 16.3936 14.5613C16.2711 14.3803 16.1561 14.3827 16.0008 14.3789" stroke="black" stroke-width="2" stroke-linecap="round" stroke-linejoin="round"/>
<path d="M52.2106 15.1416C52.365 15.638 52.0448 15.9581 51.7698 16.2816C50.8858 17.329 49.9852 18.3621 49.105 19.4123C48.2814 20.3956 47.4786 21.3964 46.6588 22.3825C46.6009 22.4508 46.5578 22.5303 46.5321 22.616C46.5064 22.7018 46.4988 22.7919 46.5096 22.8808" stroke="black" stroke-width="2" stroke-linecap="round" stroke-linejoin="round"/>
<path d="M29.5393 72.1152C29.575 72.5403 29.7511 72.9414 30.04 73.2552C30.4114 73.659 30.732 74.0869 30.9534 74.5928C31.2436 75.2545 31.6906 75.7689 32.3998 76.0045C33.24 76.2833 34.0566 76.213 34.7947 75.7271C35.0878 75.5343 35.3291 75.2459 35.5291 74.9391C35.6977 74.6802 35.7898 74.4085 35.7556 74.0983" stroke="black" stroke-width="2" stroke-linecap="round" stroke-linejoin="round"/>
<path d="M39.6454 17.6967C39.4165 17.6877 39.1847 17.7238 38.959 17.6582" stroke="black" stroke-width="2" stroke-linecap="round" stroke-linejoin="round"/>
<path d="M32.6387 76.0923V82.6601C32.6387 83.3901 32.7826 84.1129 33.0623 84.7872C33.3419 85.4615 33.7518 86.074 34.2684 86.5897C34.7851 87.1054 35.3983 87.5142 36.0731 87.7926C36.7479 88.0711 37.4709 88.2137 38.2009 88.2124L82.0876 88.134C82.6424 88.134 83.1918 88.0245 83.7043 87.812C84.2168 87.5994 84.6824 87.2879 85.0744 86.8953C85.4664 86.5027 85.7772 86.0366 85.9889 85.5238C86.2007 85.0109 86.3093 84.4614 86.3084 83.9065L86.2975 77.4898C86.7663 77.1919 87.0423 76.7426 87.2665 76.2391C87.5943 75.5038 87.9624 74.7884 88.341 74.0783C88.5017 73.7839 88.6045 73.4614 88.6435 73.1283C88.653 73.0457 88.6212 72.935 88.691 72.8908C89.3641 72.4529 89.5437 71.6862 89.8861 71.045C90.8252 69.2875 91.7006 67.4991 92.597 65.7202C92.662 65.5915 92.7518 65.4352 92.7281 65.3084C92.5989 64.6282 92.9181 63.9993 92.9181 63.3333C92.9111 51.3345 92.9111 39.3355 92.9181 27.3364C92.9181 26.9564 92.8919 26.5878 92.7703 26.2311C92.7381 26.154 92.7286 26.0693 92.7428 25.9869C93.0715 24.5097 93.0017 23.0243 92.7309 21.5585C92.3215 19.3379 90.3341 17.4611 88.1025 17.1343C86.7317 16.9339 85.3432 16.884 83.9866 17.236C82.7959 17.5473 81.7366 18.2326 80.9645 19.1911C80.1925 20.1496 79.7485 21.3306 79.6979 22.5603C79.666 23.3896 79.6945 24.2228 79.6922 25.0521C79.6922 25.3846 79.6736 25.7171 79.8347 26.0192C79.8822 26.1047 79.9007 26.1954 79.8613 26.261C79.6043 26.6885 79.696 27.1592 79.6955 27.6133C79.6917 39.4741 79.6906 51.3347 79.6922 63.1951C79.6922 63.6302 79.6561 64.0691 79.8641 64.4776C79.8803 64.509 79.9387 64.5023 79.9059 64.5831C79.6551 65.2067 79.9966 65.7273 80.2531 66.2389C81.2506 68.2339 82.2239 70.2413 83.3216 72.1764C83.6955 72.8367 83.9786 73.5097 84.2716 74.1961C84.6227 75.0155 85.1266 75.7636 85.4767 76.5868C85.5822 76.8128 85.733 77.0148 85.9199 77.1801C86.1446 77.3924 86.4177 77.5833 86.308 77.9747" stroke="black" stroke-width="2" stroke-linecap="round" stroke-linejoin="round"/>
<path d="M83.8057 31.6626C83.9605 31.7647 83.9444 31.9238 83.9444 32.0777C83.9444 32.6088 83.9444 33.1395 83.9444 33.6699C83.9444 41.8399 83.9444 50.0085 83.9444 58.1757C83.9444 58.4887 83.8969 58.8079 84.2232 59.0064" stroke="black" stroke-width="2" stroke-linecap="round" stroke-linejoin="round"/>
<path d="M88.6169 31.9048V58.7641" stroke="black" stroke-width="2" stroke-linecap="round" stroke-linejoin="round"/>
<path d="M79.9292 26.1252C81.0136 26.0625 82.098 26.1176 83.1825 26.1204C85.0863 26.1257 86.9905 26.0692 88.8934 26.1024C90.1407 26.1238 91.3857 26.082 92.6317 26.0905" stroke="black" stroke-width="2" stroke-linecap="round" stroke-linejoin="round"/>
<path d="M79.9981 64.5444C80.3216 64.5212 80.6445 64.4785 80.9675 64.478C84.4977 64.4733 88.0286 64.472 91.56 64.4742C91.9215 64.4742 92.2821 64.4775 92.6331 64.5786" stroke="black" stroke-width="2" stroke-linecap="round" stroke-linejoin="round"/>
<path d="M88.6169 72.9552C88.3528 72.7458 88.0469 72.6755 87.7168 72.6769C86.7478 72.6807 85.7783 72.6821 84.8093 72.6769C84.5033 72.6729 84.2026 72.7579 83.9439 72.9215" stroke="black" stroke-width="2" stroke-linecap="round" stroke-linejoin="round"/>
</svg>
