<svg width="94" height="94" viewBox="0 0 94 94" fill="none" xmlns="http://www.w3.org/2000/svg">
<path d="M13.3188 24.025C7.70422 21.6703 5.55491 23.1358 5.55491 29.3187C5.55491 34.1418 5.83268 38.9852 5.48394 43.7829C5.05718 49.6467 7.47251 54.3264 9.94471 59.4123C13.1022 65.9091 17.8229 70.8051 22.9083 75.4863C25.8693 78.2123 27.2543 81.1484 26.7538 85.0842C26.6513 85.8903 26.8577 86.7363 26.9343 87.728H43.6691C43.6691 81.5564 43.7307 75.555 43.6061 69.5545C43.5864 68.6037 42.91 67.5057 42.229 66.7556C36.6332 60.5925 30.9147 54.5403 25.3621 48.3386C24.3093 47.1636 23.0624 47.0076 21.6524 46.7406C20.5827 47.7168 19.6784 49.038 18.9654 50.4978" stroke="black" stroke-width="2" stroke-linecap="round" stroke-linejoin="round"/>
<path d="M76.845 50.494L74.6219 47.063C71.3371 46.0647 69.8443 48.661 68.4804 50.2336C64.2161 55.146 59.7196 59.8352 55.2899 64.5855C53.1001 66.9355 51.8838 69.3743 52.0704 72.732C52.3444 77.6604 52.1409 82.6152 52.1409 87.725H69.3165C66.7668 79.4121 72.7945 75.411 77.6017 71.0175C83.5279 65.6007 86.0617 58.1991 89.9279 51.5665C90.4919 50.5978 90.223 49.6616 90.2301 48.7282C90.2771 42.2586 90.2555 35.7881 90.2555 29.3172C90.2555 23.1343 88.1062 21.6689 82.4915 24.0236" stroke="black" stroke-width="2" stroke-linecap="round" stroke-linejoin="round"/>
<path d="M47.9043 7.08548C46.9643 6.49751 45.9895 5.95748 45.0843 5.31358C39.3601 1.24808 33.973 3.34569 30.6506 7.12168C27.0936 11.1637 26.9159 17.457 31.0111 21.5037C36.3987 26.8302 42.1322 31.8066 47.8841 37.088C51.5435 33.798 55.0281 30.688 58.484 27.547C60.3926 25.8117 62.2651 24.0356 64.1329 22.2557C68.4358 18.1554 69.3692 11.7277 64.7843 6.78327C60.7127 2.39394 53.5419 2.64022 47.9113 7.07139" stroke="black" stroke-width="2" stroke-linecap="round" stroke-linejoin="round"/>
<path d="M21.4358 46.6116C20.6546 41.3326 21.0771 36.0183 21.1852 30.7327C21.229 28.6026 20.9343 26.505 21.0363 24.3759C21.1749 21.4901 19.9181 20.1436 17.554 20.1436C15.3812 20.1436 13.4251 22.2609 13.708 24.727C14.4097 30.8436 13.7795 36.9686 14.0445 43.0819C14.0915 44.1573 13.7155 45.2326 14.6974 46.2897C19.9501 51.9348 23.5907 58.8909 29.2002 64.2573" stroke="black" stroke-width="2" stroke-linecap="round" stroke-linejoin="round"/>
<path d="M74.3723 46.6116C75.1535 41.3326 74.7314 36.0183 74.6228 30.7327C74.5791 28.6026 74.8743 26.505 74.7718 24.3759C74.6308 21.4901 75.8904 20.1436 78.2545 20.1436C80.4268 20.1436 82.3835 22.2609 82.1005 24.727C81.3988 30.8436 82.0291 36.9686 81.764 43.0819C81.717 44.1573 82.093 45.2326 81.1112 46.2897C75.858 51.9348 72.2178 58.8909 66.6084 64.2573" stroke="black" stroke-width="2" stroke-linecap="round" stroke-linejoin="round"/>
<path d="M34.67 56.8459C35.8248 52.6522 35.1898 48.3649 35.0968 44.1438C35.0366 41.4179 32.9019 40.8647 28.8458 42.0241" stroke="black" stroke-width="2" stroke-linecap="round" stroke-linejoin="round"/>
<path d="M66.9613 42.0239C62.1984 40.2962 59.996 42.0093 60.5882 46.9669C60.9792 50.2418 60.0035 53.6032 61.1385 56.8457" stroke="black" stroke-width="2" stroke-linecap="round" stroke-linejoin="round"/>
<path d="M27.4353 49.7878C28.6023 46.4405 28.1088 42.9785 28.1403 39.5536C28.1558 37.7887 27.972 36.0041 28.1755 34.2637C28.7555 29.3047 26.554 27.5897 21.7906 29.3188" stroke="black" stroke-width="2" stroke-linecap="round" stroke-linejoin="round"/>
<path d="M74.0199 29.3189C69.2564 27.5916 67.1851 29.2954 67.6048 34.2651C67.9202 38.0026 67.7232 41.7898 67.6396 45.5522C67.6062 47.0406 67.8854 48.4191 68.3733 49.7878" stroke="black" stroke-width="2" stroke-linecap="round" stroke-linejoin="round"/>
</svg>
