<svg width="97" height="97" viewBox="0 0 97 97" fill="none" xmlns="http://www.w3.org/2000/svg">
<g clip-path="url(#clip0_1_331)">
<path d="M55.3176 76.1249C55.0266 74.8862 55.1018 73.7183 55.3991 72.434C56.0509 69.6147 56.1557 66.7537 55.805 63.8131C55.2769 59.3831 53.6531 55.5012 51.0811 51.936C50.5438 51.1915 50.2566 49.9475 49.6819 49.6225C46.9863 48.0894 44.9735 45.565 42.0228 44.4451C41.8836 44.3923 41.6983 44.3918 41.6052 44.2996C39.7137 42.3834 37.1078 42.7394 34.8026 42.219C31.3926 41.4488 27.9971 42.1186 24.6278 42.7525C24.4367 42.7884 24.2233 42.93 24.0657 42.88C21.6091 42.0987 20.0722 43.722 18.4038 45.014C14.4379 48.0846 10.959 51.5877 8.80078 56.1938C7.44278 59.0936 6.65708 62.1244 6.48587 65.3787C6.03822 73.8691 9.26347 80.7256 15.6073 86.1294C18.7409 88.7969 22.454 90.3902 26.593 91.1904C30.1039 91.8694 33.545 91.8098 36.9167 91.0502C40.513 90.2403 43.8037 88.5462 46.6933 86.1702C49.7721 83.6394 52.3014 80.613 54.5848 77.3795C55.0901 76.6637 55.5727 76.0987 56.4496 75.9881C57.3265 75.8775 57.8639 75.2843 58.4299 74.7111C62.483 70.6085 66.5172 66.4869 70.5971 62.4115C76.0937 56.9222 81.6082 51.4523 87.1404 46.0015C90.8405 42.3402 93.896 38.3041 95.2234 33.1359C95.7627 31.032 95.9878 28.9164 96.0479 26.7659C96.0717 25.9366 95.7516 25.2435 95.1997 24.6445" stroke="black" stroke-width="2" stroke-linecap="round" stroke-linejoin="round"/>
<path d="M76.6736 41.7584C77.7533 41.3001 78.294 40.2671 79.0734 39.4911C83.6082 34.9747 88.1374 30.4526 92.6612 25.9246C93.0865 25.5012 93.5536 25.0793 94.0784 24.8038C95.3311 24.1461 95.9383 23.1364 95.6177 21.8186C93.2587 12.1215 87.4639 5.45667 77.7877 2.78723C68.9607 0.353018 60.8292 2.28186 54.2245 8.70423C43.8037 18.832 33.642 29.2275 23.3363 39.4789C22.4633 40.349 22.1296 41.3428 21.9399 42.467" stroke="black" stroke-width="2" stroke-linecap="round" stroke-linejoin="round"/>
<path d="M40.8917 66.5082C40.7593 68.5238 40.3582 70.4517 39.1981 72.1677C35.5465 77.5681 28.047 77.8223 24.0564 73.16C21.3176 69.959 20.8336 66.3108 22.3914 62.9847C24.1815 59.1619 27.269 57.1646 31.5579 57.1734C31.9347 57.1734 32.3121 57.1734 32.6894 57.1734" stroke="black" stroke-width="2" stroke-linecap="round" stroke-linejoin="round"/>
<path d="M81.6255 17.5728C81.3302 18.3434 80.5949 18.7144 80.0594 19.2596C75.3617 24.0394 70.649 28.8031 65.9212 33.5506C60.5639 38.9179 55.1908 44.2699 49.8018 49.6065" stroke="black" stroke-width="2" stroke-linecap="round" stroke-linejoin="round"/>
<path d="M58.9949 21.6748C59.1568 22.6113 58.6229 23.1967 58.0127 23.804C52.3893 29.4009 46.7751 35.0068 41.1702 40.6218C40.5368 41.2523 39.9252 41.8828 39.6182 42.7476" stroke="black" stroke-width="2" stroke-linecap="round" stroke-linejoin="round"/>
<path d="M30.7087 49.9604C28.9584 50.3101 27.1867 50.4154 25.462 51.0551C19.7118 53.1891 16.0418 57.3746 14.8269 63.1345C12.9112 72.2191 17.7393 80.7124 27.1944 83.1131C34.3836 84.9387 41.1697 82.2401 45.4072 75.6926C46.7913 73.5543 47.5737 71.201 47.8457 68.6305C48.4578 62.8479 46.4848 58.0706 42.2833 54.226C39.5275 51.704 36.2208 50.2315 32.4062 50.0957C31.8863 50.0773 31.3688 50.0055 30.8504 49.958" stroke="black" stroke-width="2" stroke-linecap="round" stroke-linejoin="round"/>
<path d="M31.1685 69.6461C32.7403 69.6461 34.0145 68.3719 34.0145 66.8001C34.0145 65.2283 32.7403 63.9541 31.1685 63.9541C29.5967 63.9541 28.3225 65.2283 28.3225 66.8001C28.3225 68.3719 29.5967 69.6461 31.1685 69.6461Z" stroke="black" stroke-width="2" stroke-linecap="round" stroke-linejoin="round"/>
</g>
<defs>
<clipPath id="clip0_1_331">
<rect width="97" height="97" fill="white"/>
</clipPath>
</defs>
</svg>
